<?xml version="1.0" encoding="utf-8"?>
<!-- Generator: Adobe Illustrator 24.1.3, SVG Export Plug-In . SVG Version: 6.00 Build 0)  -->
<svg version="1.1" id="KAP" xmlns="http://www.w3.org/2000/svg" xmlns:xlink="http://www.w3.org/1999/xlink" x="0px" y="0px"
	 viewBox="0 0 595.28 595.28" style="enable-background:new 0 0 595.28 595.28;" xml:space="preserve">
<style type="text/css">
	.st0{fill-rule:evenodd;clip-rule:evenodd;fill:#2198ED;}
	.st1{fill:#FFFFFF;}
	.st2{opacity:0.09;fill:#FFFFFF;}
</style>
<g id="IMAGE">
	<rect id="BACK" x="-0.2" y="0.2" class="st0" width="595.28" height="595.28"/>
	<g id="TEXT">
		<g>
			<path class="st1" d="M60.89,278.6c0.46,0,0.7,0.21,0.7,0.67v2.99c0,0.46-0.24,0.7-0.7,0.7H51.3v16.34c0,0.46-0.21,0.67-0.67,0.67
				h-3.33c-0.46,0-0.67-0.21-0.67-0.67v-16.34h-9.59c-0.46,0-0.7-0.24-0.7-0.7v-2.99c0-0.46,0.24-0.67,0.7-0.67H60.89z"/>
			<path class="st1" d="M68.31,278.6c0.46,0,0.67,0.21,0.67,0.67v7.94h14.3v-7.94c0-0.46,0.21-0.67,0.67-0.67h3.3
				c0.46,0,0.7,0.21,0.7,0.67v20.04c0,0.46-0.24,0.67-0.7,0.67h-3.3c-0.46,0-0.67-0.21-0.67-0.67v-8.13h-14.3v8.13
				c0,0.46-0.21,0.67-0.67,0.67h-3.3c-0.46,0-0.7-0.21-0.7-0.67v-20.04c0-0.46,0.24-0.67,0.7-0.67H68.31z"/>
			<path class="st1" d="M113.74,278.6c0.46,0,0.7,0.21,0.7,0.67v2.9c0,0.46-0.24,0.67-0.7,0.67h-13.35c-3.18,0-4.06,0.95-4.06,4.15
				v0.31h17.26c0.46,0,0.67,0.21,0.67,0.67v2.41c0,0.46-0.21,0.67-0.67,0.67H96.33v0.52c0,3.21,0.89,4.16,4.06,4.16h13.35
				c0.46,0,0.7,0.21,0.7,0.67v2.9c0,0.46-0.24,0.67-0.7,0.67H100.3c-6.17,0-8.55-2.2-8.55-8.06v-5.25c0-5.87,2.38-8.06,8.55-8.06
				H113.74z"/>
			<path class="st1" d="M149.95,278.6c0.46,0,0.7,0.21,0.7,0.67v2.9c0,0.46-0.24,0.67-0.7,0.67h-13.26c-3.15,0-4.06,0.95-4.06,4.15
				v0.61h17.17c0.46,0,0.67,0.21,0.67,0.67v2.41c0,0.46-0.21,0.67-0.67,0.67h-17.17v7.94c0,0.46-0.21,0.67-0.67,0.67h-3.3
				c-0.46,0-0.7-0.21-0.7-0.67v-12.65c0-5.87,2.38-8.06,8.55-8.06H149.95z"/>
			<path class="st1" d="M157.62,278.6c0.46,0,0.67,0.21,0.67,0.67v12.19c0,3.24,0.92,4.19,4.06,4.19h8.46
				c3.15,0,4.03-0.95,4.03-4.19v-12.19c0-0.46,0.21-0.67,0.67-0.67h3.33c0.46,0,0.67,0.21,0.67,0.67v12.65
				c0,5.87-2.35,8.06-8.55,8.06h-8.8c-6.17,0-8.55-2.2-8.55-8.06v-12.65c0-0.46,0.24-0.67,0.7-0.67H157.62z"/>
			<path class="st1" d="M206.77,278.6c0.46,0,0.7,0.21,0.7,0.67v2.99c0,0.46-0.24,0.7-0.7,0.7h-9.59v16.34
				c0,0.46-0.21,0.67-0.67,0.67h-3.33c-0.46,0-0.67-0.21-0.67-0.67v-16.34h-9.59c-0.46,0-0.7-0.24-0.7-0.7v-2.99
				c0-0.46,0.24-0.67,0.7-0.67H206.77z"/>
		</g>
		<g>
			<path class="st1" d="M214.44,278.6c0.46,0,0.67,0.21,0.67,0.67v12.19c0,3.24,0.92,4.19,4.06,4.19h8.46
				c3.15,0,4.03-0.95,4.03-4.19v-12.19c0-0.46,0.21-0.67,0.67-0.67h3.33c0.46,0,0.67,0.21,0.67,0.67v12.65
				c0,5.87-2.35,8.06-8.55,8.06H219c-6.17,0-8.55-2.2-8.55-8.06v-12.65c0-0.46,0.24-0.67,0.7-0.67H214.44z"/>
			<path class="st1" d="M257.67,278.6c4.67,0,6.57,2.17,6.57,6.29v1.74c0,3.48-1.34,5.53-4.55,6.11l5.22,6.48
				c0.18,0.21,0.15,0.76-0.4,0.76h-3.94c-0.52,0-0.67-0.12-0.85-0.4l-4.83-6.35h-9.87v6.08c0,0.46-0.21,0.67-0.67,0.67h-3.3
				c-0.46,0-0.7-0.21-0.7-0.67v-19.8c0-0.61,0.31-0.92,0.92-0.92H257.67z M245.03,289.51h11.7c2.08,0,2.84-0.89,2.84-2.72v-1.28
				c0-1.83-0.76-2.72-2.84-2.72h-11.3c-0.28,0-0.4,0.12-0.4,0.37V289.51z"/>
		</g>
		<g>
			<path class="st1" d="M289.2,278.6c0.46,0,0.7,0.21,0.7,0.67v2.9c0,0.46-0.24,0.67-0.7,0.67h-13.35c-3.18,0-4.06,0.95-4.06,4.15
				v0.31h17.26c0.46,0,0.67,0.21,0.67,0.67v2.41c0,0.46-0.21,0.67-0.67,0.67h-17.26v0.52c0,3.21,0.89,4.16,4.06,4.16h13.35
				c0.46,0,0.7,0.21,0.7,0.67v2.9c0,0.46-0.24,0.67-0.7,0.67h-13.44c-6.17,0-8.55-2.2-8.55-8.06v-5.25c0-5.87,2.38-8.06,8.55-8.06
				H289.2z"/>
		</g>
		<g>
			<path class="st1" d="M41.64,314.9c0.46,0,0.67,0.21,0.67,0.67v20.04c0,0.46-0.21,0.67-0.67,0.67h-3.3c-0.46,0-0.7-0.21-0.7-0.67
				v-20.04c0-0.46,0.24-0.67,0.7-0.67H41.64z"/>
			<path class="st1" d="M67.61,314.9c0.46,0,0.67,0.21,0.67,0.67v2.9c0,0.46-0.21,0.67-0.67,0.67h-15.3c-1.16,0-1.62,0.64-1.62,1.71
				v1.04c0,1.13,0.52,1.71,1.59,1.71h11.46c3.51,0,5.35,1.89,5.35,5.25v2.44c0,2.96-1.71,4.98-5.41,4.98H46.75
				c-0.46,0-0.7-0.21-0.7-0.67v-2.9c0-0.46,0.24-0.67,0.7-0.67h16.04c1.16,0,1.62-0.64,1.62-1.71v-1.25c0-1.13-0.52-1.71-1.59-1.71
				H51.36c-3.51,0-5.35-1.89-5.35-5.25v-2.23c0-2.96,1.71-4.98,5.41-4.98H67.61z"/>
			<path class="st1" d="M101.31,314.9c4.22,0,5.8,1.65,5.8,5.04v1.47c0,1.74-0.67,3.02-1.96,3.88c1.44,0.82,2.11,2.14,2.11,3.94V331
				c0,3.24-1.34,5.29-5.41,5.29H83.71c-0.61,0-0.92-0.31-0.92-0.92v-19.55c0-0.61,0.31-0.92,0.92-0.92H101.31z M87.47,323.79H100
				c2.02,0,2.63-0.61,2.63-1.8v-1.04c0-1.25-0.67-1.83-2.26-1.83H87.87c-0.27,0-0.4,0.12-0.4,0.4V323.79z M87.47,327.12v4.55
				c0,0.27,0.12,0.4,0.4,0.4h12.52c1.62,0,2.26-0.58,2.26-1.86v-1.16c0-1.25-0.64-1.92-2.66-1.92H87.47z"/>
			<path class="st1" d="M132.63,314.9c0.46,0,0.7,0.21,0.7,0.67v2.9c0,0.46-0.24,0.67-0.7,0.67h-13.35c-3.18,0-4.06,0.95-4.06,4.15
				v0.31h17.26c0.46,0,0.67,0.21,0.67,0.67v2.41c0,0.46-0.21,0.67-0.67,0.67h-17.26v0.52c0,3.21,0.89,4.15,4.06,4.15h13.35
				c0.46,0,0.7,0.21,0.7,0.67v2.9c0,0.46-0.24,0.67-0.7,0.67h-13.44c-6.17,0-8.55-2.2-8.55-8.06v-5.25c0-5.87,2.38-8.06,8.55-8.06
				H132.63z"/>
			<path class="st1" d="M140.85,314.9c0.46,0,0.67,0.21,0.67,0.67v20.04c0,0.46-0.21,0.67-0.67,0.67h-3.3c-0.46,0-0.7-0.21-0.7-0.67
				v-20.04c0-0.46,0.24-0.67,0.7-0.67H140.85z"/>
			<path class="st1" d="M151.02,314.9c1.96,0,2.38,0.24,3.54,1.8l11.36,14.91c0.09,0.15,0.21,0.21,0.4,0.21h0.27
				c0.15,0,0.24-0.09,0.24-0.31v-15.95c0-0.46,0.21-0.67,0.67-0.67h3.21c0.46,0,0.67,0.21,0.67,0.67v17.54
				c0,2.47-0.89,3.18-2.75,3.18h-2.63c-1.86,0-2.32-0.18-3.54-1.8l-11.39-14.91c-0.12-0.15-0.21-0.21-0.4-0.21h-0.27
				c-0.18,0-0.24,0.09-0.24,0.31v15.95c0,0.46-0.21,0.67-0.67,0.67h-3.21c-0.46,0-0.7-0.21-0.7-0.67v-17.54
				c0-2.47,0.89-3.18,2.75-3.18H151.02z"/>
			<path class="st1" d="M199.26,314.9c0.46,0,0.67,0.21,0.67,0.67v2.99c0,0.46-0.21,0.7-0.67,0.7h-15.3c-3.15,0-4.06,0.92-4.06,4.16
				v4.4c0,3.24,0.92,4.19,4.06,4.19h10.08c1.07,0,1.53-0.49,1.53-1.86v-2.47c0-0.28-0.09-0.4-0.37-0.4h-8.95
				c-0.43,0-0.67-0.24-0.67-0.7v-2.29c0-0.46,0.24-0.7,0.67-0.7h12.74c0.61,0,0.92,0.31,0.92,0.92v7.12c0,3.42-1.34,4.67-3.79,4.67
				h-12.34c-6.17,0-8.55-2.2-8.55-8.06v-5.25c0-5.87,2.38-8.06,8.55-8.06H199.26z"/>
			<path class="st1" d="M231.31,314.9c4.67,0,6.57,2.17,6.57,6.29v1.74c0,3.48-1.34,5.53-4.55,6.11l5.22,6.48
				c0.18,0.21,0.15,0.76-0.4,0.76h-3.94c-0.52,0-0.67-0.12-0.86-0.4l-4.83-6.35h-9.87v6.08c0,0.46-0.21,0.67-0.67,0.67h-3.3
				c-0.46,0-0.7-0.21-0.7-0.67v-19.79c0-0.61,0.31-0.92,0.92-0.92H231.31z M218.66,325.8h11.7c2.08,0,2.84-0.89,2.84-2.72v-1.28
				c0-1.83-0.76-2.72-2.84-2.72h-11.3c-0.27,0-0.4,0.12-0.4,0.37V325.8z"/>
		</g>
		<g>
			<path class="st1" d="M262.84,314.9c0.46,0,0.7,0.21,0.7,0.67v2.9c0,0.46-0.24,0.67-0.7,0.67h-13.35c-3.18,0-4.06,0.95-4.06,4.15
				v0.31h17.26c0.46,0,0.67,0.21,0.67,0.67v2.41c0,0.46-0.21,0.67-0.67,0.67h-17.26v0.52c0,3.21,0.89,4.15,4.06,4.15h13.35
				c0.46,0,0.7,0.21,0.7,0.67v2.9c0,0.46-0.24,0.67-0.7,0.67h-13.44c-6.17,0-8.55-2.2-8.55-8.06v-5.25c0-5.87,2.38-8.06,8.55-8.06
				H262.84z"/>
			<path class="st1" d="M288.29,314.9c0.46,0,0.67,0.21,0.67,0.67v2.9c0,0.46-0.21,0.67-0.67,0.67h-15.3
				c-1.16,0-1.62,0.64-1.62,1.71v1.04c0,1.13,0.52,1.71,1.59,1.71h11.46c3.51,0,5.35,1.89,5.35,5.25v2.44
				c0,2.96-1.71,4.98-5.41,4.98h-16.92c-0.46,0-0.7-0.21-0.7-0.67v-2.9c0-0.46,0.24-0.67,0.7-0.67h16.04c1.16,0,1.62-0.64,1.62-1.71
				v-1.25c0-1.13-0.52-1.71-1.59-1.71h-11.46c-3.51,0-5.35-1.89-5.35-5.25v-2.23c0-2.96,1.71-4.98,5.41-4.98H288.29z"/>
			<path class="st1" d="M297.24,314.9c0.46,0,0.67,0.21,0.67,0.67v7.94h14.3v-7.94c0-0.46,0.21-0.67,0.67-0.67h3.3
				c0.46,0,0.7,0.21,0.7,0.67v20.04c0,0.46-0.25,0.67-0.7,0.67h-3.3c-0.46,0-0.67-0.21-0.67-0.67v-8.13h-14.3v8.13
				c0,0.46-0.21,0.67-0.67,0.67h-3.3c-0.46,0-0.7-0.21-0.7-0.67v-20.04c0-0.46,0.24-0.67,0.7-0.67H297.24z"/>
			<path class="st1" d="M334.48,314.9c1.56,0,2.51,0.49,3.51,2.32l10.11,18.36c0.21,0.4,0.12,0.7-0.37,0.7h-3.88
				c-0.4,0-0.55-0.09-0.7-0.4l-2.17-3.94h-14.36l-2.11,3.94c-0.15,0.31-0.34,0.4-0.7,0.4h-3.97c-0.52,0-0.61-0.31-0.4-0.7
				l10.02-18.36c1.01-1.83,1.92-2.32,3.21-2.32H334.48z M328.55,328.4h10.51l-4.86-8.95c-0.09-0.15-0.18-0.21-0.34-0.21h-0.18
				c-0.15,0-0.24,0.06-0.34,0.21L328.55,328.4z"/>
			<path class="st1" d="M368.03,314.9c4.67,0,6.57,2.17,6.57,6.29v2.26c0,4.12-1.89,6.29-6.57,6.29h-12.65v5.87
				c0,0.46-0.21,0.67-0.67,0.67h-3.3c-0.46,0-0.7-0.21-0.7-0.67v-19.79c0-0.61,0.3-0.92,0.92-0.92H368.03z M355.38,325.71h11.7
				c2.08,0,2.84-0.89,2.84-2.72v-1.16c0-1.83-0.76-2.72-2.84-2.72h-11.3c-0.27,0-0.4,0.09-0.4,0.37V325.71z"/>
			<path class="st1" d="M399.37,314.9c0.46,0,0.7,0.21,0.7,0.67v2.9c0,0.46-0.24,0.67-0.7,0.67h-13.35c-3.18,0-4.06,0.95-4.06,4.15
				v0.31h17.26c0.46,0,0.67,0.21,0.67,0.67v2.41c0,0.46-0.21,0.67-0.67,0.67h-17.26v0.52c0,3.21,0.89,4.15,4.06,4.15h13.35
				c0.46,0,0.7,0.21,0.7,0.67v2.9c0,0.46-0.24,0.67-0.7,0.67h-13.44c-6.17,0-8.55-2.2-8.55-8.06v-5.25c0-5.87,2.38-8.06,8.55-8.06
				H399.37z"/>
			<path class="st1" d="M418.8,314.9c6.63,0,9.35,2.66,9.35,8.61v4.16c0,5.96-2.72,8.61-9.35,8.61h-14.3
				c-0.61,0-0.92-0.31-0.92-0.92v-19.55c0-0.61,0.3-0.92,0.92-0.92H418.8z M408.26,331.64c0,0.28,0.12,0.4,0.4,0.4h10.02
				c3.6,0,4.8-1.16,4.8-4.77v-3.36c0-3.6-1.19-4.77-4.8-4.77h-10.02c-0.27,0-0.4,0.12-0.4,0.43V331.64z"/>
		</g>
	</g>
	<g id="LOGO">
		<polygon class="st2" points="349.34,373.14 186.83,373.14 200.83,348.9 335.34,348.9 		"/>
		<polygon class="st2" points="368.73,406.74 148.59,406.74 162.58,382.49 354.74,382.49 		"/>
		<polygon class="st2" points="379.53,406.74 312.27,290.24 326.27,266 407.52,406.74 		"/>
		<polygon class="st2" points="418.29,406.74 331.65,256.68 345.65,232.43 446.28,406.74 		"/>
		<polygon class="st2" points="245.02,339.55 326.26,198.84 340.25,223.08 273.01,339.55 		"/>
		<polygon class="st2" points="206.23,339.55 316.28,148.92 330.28,173.16 234.22,339.55 		"/>
	</g>
</g>
</svg>
