<?xml version="1.0" encoding="UTF-8"?>
<!DOCTYPE svg PUBLIC "-//W3C//DTD SVG 1.1//EN" "http://www.w3.org/Graphics/SVG/1.1/DTD/svg11.dtd">
<!-- Creator: CorelDRAW 2020 (64-Bit) -->
<svg xmlns="http://www.w3.org/2000/svg" xml:space="preserve" width="12.8436mm" height="14.4731mm" version="1.1" style="shape-rendering:geometricPrecision; text-rendering:geometricPrecision; image-rendering:optimizeQuality; fill-rule:evenodd; clip-rule:evenodd"
viewBox="0 0 41.24 46.48"
 xmlns:xlink="http://www.w3.org/1999/xlink"
 xmlns:xodm="http://www.corel.com/coreldraw/odm/2003">
 <defs>
  <style type="text/css">
   <![CDATA[
    .fil0 {fill:#FEFEFE;fill-rule:nonzero}
   ]]>
  </style>
 </defs>
 <g id="Layer_x0020_1">
  <metadata id="CorelCorpID_0Corel-Layer"/>
  <g id="_2319114538672">
   <polygon class="fil0" points="27.81,31.06 5.3,31.06 7.24,27.71 25.87,27.71 "/>
   <polygon class="fil0" points="30.5,35.72 -0,35.72 1.94,32.36 28.56,32.36 "/>
   <polygon class="fil0" points="32,35.72 22.68,19.58 24.62,16.22 35.87,35.72 "/>
   <polygon class="fil0" points="37.37,35.72 25.36,14.93 27.3,11.57 41.24,35.72 "/>
   <polygon class="fil0" points="13.36,26.41 24.61,6.92 26.55,10.27 17.24,26.41 "/>
   <polygon class="fil0" points="7.99,26.41 23.23,0 25.17,3.36 11.86,26.41 "/>
   <path class="fil0" d="M29.88 46.46l-2.86 0 -0.01 -9.45 6.66 -0c1.05,-0 1.94,0.33 2.67,1 0.68,0.61 1.02,1.34 1.02,2.19 0,0.84 -0.34,1.57 -1.02,2.18 -0.72,0.67 -1.61,1 -2.67,1l-3.69 0 1.23 -2.25 2.46 -0c0.19,0 0.36,-0.07 0.52,-0.21 0.21,-0.19 0.31,-0.43 0.31,-0.72 -0,-0.29 -0.1,-0.53 -0.31,-0.73 -0.16,-0.14 -0.33,-0.21 -0.52,-0.21l-3.81 0 0 7.2z"/>
   <polygon class="fil0" points="21.25,44.28 22.49,46.47 14.11,46.47 19.27,37.02 21.14,37.02 26.31,46.46 23.2,46.47 20.21,40.83 18.37,44.28 "/>
   <polygon class="fil0" points="6.72,37.04 6.74,37.04 6.74,39.91 9.73,37.03 13.44,37.02 8.84,41.31 14.05,46.47 10.43,46.47 6.75,42.98 6.75,46.47 3.87,46.48 3.87,37.03 6.72,37.03 "/>
  </g>
 </g>
</svg>
